<svg viewBox="176 243 1716 1716" xmlns="http://www.w3.org/2000/svg">
  <defs>
    <linearGradient id="g" x1="1927.88" y1="1728.8" x2="489.903" y2="287.843" gradientUnits="userSpaceOnUse">
      <stop stop-color="#2C36FF"/>
      <stop offset="0.47" stop-color="#8D02FF"/>
      <stop offset="1" stop-color="#FF1861"/>
    </linearGradient>
  </defs>
  <path d="M814.11 1749.73C683.766 1749.73 580.926 1732.99 505.589 1699.51C430.252 1664.83 376.44 1612.81 344.153 1543.45C311.866 1474.1 295.723 1386.8 295.723 1281.57V458.247H582.719V1281.57C582.719 1372.45 603.646 1434.63 645.5 1468.12C688.549 1500.4 760.896 1516.55 862.541 1516.55H1208.73C1310.38 1516.55 1382.12 1500.4 1423.98 1468.12C1467.03 1434.63 1488.55 1372.45 1488.55 1281.57V458.247H1775.55V1281.57C1775.55 1386.8 1759.41 1474.1 1727.12 1543.45C1694.83 1612.81 1641.02 1664.83 1565.68 1699.51C1490.35 1732.99 1387.51 1749.73 1257.16 1749.73H814.11Z" fill="url(#g)"/>
</svg>
